PathFileType	4	(X/Y/Z)	 s03c0303.trc
DataRate	CameraRate	NumFrames	NumMarkers	Units	OrigDataRate	OrigDataStartFrame	OrigNumFrames
200	200	4	50	mm	200	1001	2000
Frame#	Time	racr			lacr			c7			jug			rlel			rdr			llel			ldr			s2			lic			ric			lasi			rasi			rpsi			lpsi			rgt			lgt			rth1			rth2			rth3			rth4			rlfc			rmfc			rsh1			rsh2			rsh3			rsh4			rlmal			rcal			rtoe			rmt5			rmt1			lth1			lth2			lth4			lth3			llfc			lmfc			lsh1			lsh2			lsh3			lsh4			llmal			lcal			ltoe			lmt1			lmt5			SBIKE			LBIKE			RBIKE			
		X1	Y1	Z1	X2	Y2	Z2	X3	Y3	Z3	X4	Y4	Z4	X5	Y5	Z5	X6	Y6	Z6	X7	Y7	Z7	X8	Y8	Z8	X9	Y9	Z9	X10	Y10	Z10	X11	Y11	Z11	X12	Y12	Z12	X13	Y13	Z13	X14	Y14	Z14	X15	Y15	Z15	X16	Y16	Z16	X17	Y17	Z17	X18	Y18	Z18	X19	Y19	Z19	X20	Y20	Z20	X21	Y21	Z21	X22	Y22	Z22	X23	Y23	Z23	X24	Y24	Z24	X25	Y25	Z25	X26	Y26	Z26	X27	Y27	Z27	X28	Y28	Z28	X29	Y29	Z29	X30	Y30	Z30	X31	Y31	Z31	X32	Y32	Z32	X33	Y33	Z33	X34	Y34	Z34	X35	Y35	Z35	X36	Y36	Z36	X37	Y37	Z37	X38	Y38	Z38	X39	Y39	Z39	X40	Y40	Z40	X41	Y41	Z41	X42	Y42	Z42	X43	Y43	Z43	X44	Y44	Z44	X45	Y45	Z45	X46	Y46	Z46	X47	Y47	Z47	X48	Y48	Z48	X49	Y49	Z49	X50	Y50	Z50	
1001	5.0050	780.473776	1425.085490	-100.606545	738.080596	1466.181371	-419.925220	712.474139	1536.734304	-247.327458	698.440833	1356.507440	-265.126736	660.418347	1191.601059	34.483222	763.620120	939.039067	-39.170816	670.679897	1200.135614	-507.655936	754.907581	926.045152	-413.187190	170.972278	1285.791726	-200.998732	325.850042	1329.893012	-397.426927	363.849916	1274.636885	-41.000701	352.313825	1251.829413	-364.518561	380.595574	1212.209240	-98.157012	208.522094	1324.890407	-151.053927	203.720454	1336.832344	-234.337227	268.739607	1158.064431	-37.407559	287.182940	1237.421829	-426.225163	277.568474	1012.949897	-26.357150	310.273861	930.090764	-28.016157	300.775754	845.472820	-39.600686	346.084005	935.639966	-36.052797	306.421324	722.004140	-80.947786	311.081179	704.778048	-198.158291	254.892239	568.639071	-45.939461	254.859981	479.492342	-54.820707	211.007162	403.008364	-52.072913	284.444662	472.911656	-79.176527	166.588379	279.954913	-67.949658	98.117606	272.056652	-96.115808	366.784896	113.180281	-116.118113	257.856619	154.956264	-38.573212	285.214044	165.076260	-152.023898	388.607997	1131.299808	-467.880755	463.895679	1090.163020	-479.751099	489.176974	1113.270533	-465.730891	508.771813	1013.573143	-490.848988	609.284192	919.041480	-483.651224	616.093272	899.978721	-352.724453	470.137811	814.250526	-490.388089	419.568327	750.526030	-465.205682	336.443438	715.761706	-454.099231	440.787815	728.679497	-441.218709	233.439464	647.962301	-428.291539	154.880333	655.364750	-381.642132	381.104053	448.389581	-345.899816	304.656778	509.327274	-314.518059	283.519804	502.714075	-431.165142	-116.545361	1020.013756	-235.131205	-7.486927	84.138291	-437.024395	-13.667500	80.781953	-36.768939	
1002	5.0100	781.128319	1426.738741	-103.245341	735.663249	1468.832342	-421.962879	711.386275	1538.731302	-249.288397	698.078145	1358.121390	-267.858301	663.304513	1193.053145	33.438434	764.405888	938.874237	-39.082298	669.099508	1201.075478	-506.851713	754.912416	926.928614	-412.575047	169.571399	1287.339535	-199.296204	323.359057	1332.378630	-396.279779	365.861287	1274.349661	-41.509730	350.827283	1254.051304	-363.918883	381.775908	1212.000564	-98.797817	207.028154	1326.692839	-145.745924	202.013408	1339.088050	-228.537946	270.254722	1158.595118	-36.320595	286.089284	1239.870831	-425.203857	277.803260	1014.456266	-25.576712	310.018871	931.359644	-27.323577	299.834052	846.750950	-38.730215	345.698400	936.711509	-35.810691	303.956820	722.766358	-80.225862	309.099761	705.998176	-198.125854	251.158417	570.339715	-45.493878	249.964102	481.280176	-54.661397	205.345322	405.263357	-51.488834	279.385565	474.300866	-78.953872	159.543576	282.734246	-67.414870	90.935110	276.109781	-95.653166	356.150520	112.016516	-116.269340	248.267372	155.885314	-38.652978	275.467441	165.297279	-152.071603	388.024944	1132.119652	-465.549871	463.641995	1091.708859	-477.587170	488.873007	1115.722403	-464.957456	509.743075	1015.772343	-487.455057	611.645514	923.897932	-481.352223	619.607915	905.133761	-349.617657	474.685135	816.465480	-489.109830	424.878745	751.902313	-463.510932	342.002590	716.371685	-453.520438	446.139206	730.754911	-439.644445	239.733060	646.829060	-427.729661	160.669167	652.158909	-381.449898	392.017587	450.906247	-346.055263	313.901906	509.862877	-314.854688	293.420328	502.736776	-430.562417	-116.570030	1020.021949	-235.321712	-7.478649	84.163448	-437.044842	-13.655817	80.793682	-36.774353	
1003	5.0150	781.658018	1428.558733	-105.963400	733.313357	1471.487475	-423.886935	710.388170	1540.823951	-251.268625	697.814820	1360.551568	-270.487142	665.941937	1194.583269	32.043116	764.938755	938.907952	-39.492402	667.565965	1202.128071	-505.876491	755.106575	927.837007	-411.874036	169.240265	1288.971325	-198.535836	320.974132	1335.112183	-395.170701	367.364726	1274.865474	-41.986044	349.237296	1256.747268	-363.679185	382.715176	1212.883166	-99.480723	209.100354	1327.596252	-146.126505	203.058437	1339.804283	-229.274011	271.604630	1159.787187	-35.381547	285.127179	1242.280832	-424.519382	278.332242	1016.217076	-24.888400	310.335334	933.018869	-26.785176	299.747749	848.533284	-37.998974	346.013534	938.309799	-35.613072	302.527412	723.837969	-79.195166	308.248836	707.686785	-197.809292	247.927483	572.398307	-44.913146	245.454923	483.410923	-54.348844	199.899067	407.986534	-50.971928	274.810975	476.032432	-78.645082	152.465275	285.991557	-67.140398	83.232239	280.817631	-95.262174	345.483315	111.475925	-116.406460	238.507232	157.485274	-38.715144	265.826810	166.392477	-152.048213	387.704099	1133.351106	-463.407486	463.620455	1093.610555	-475.417970	488.819375	1118.011861	-463.369891	510.637248	1017.632760	-483.407133	613.441144	928.428273	-478.918463	622.587777	910.162243	-346.719738	478.652986	818.454915	-487.632028	429.566253	753.279228	-462.157429	347.125631	716.622766	-452.470075	450.981834	732.566899	-438.144462	245.812033	645.029299	-427.196471	166.279545	648.068287	-381.065549	403.034231	452.907222	-345.911251	324.708432	510.415034	-313.085409	303.038887	501.852871	-429.411451	-116.653307	1020.025776	-235.361277	-7.502959	84.194251	-437.036225	-13.677218	80.808352	-36.775120	
1004	5.0200	782.259960	1430.490250	-108.667981	731.186493	1474.117255	-425.825824	709.452617	1542.961900	-253.202276	697.378523	1363.114510	-273.060497	668.425130	1196.088136	30.271970	766.377323	938.968657	-39.033407	665.871799	1203.162039	-504.663976	755.427456	929.058578	-411.385496	169.542388	1291.023134	-196.549253	318.666648	1338.322825	-394.294866	368.305436	1276.216750	-42.598278	347.801931	1259.585864	-363.482785	383.467746	1214.480961	-99.945328	209.238124	1329.662437	-144.393159	202.828401	1341.721231	-228.701549	272.718324	1161.527307	-34.581142	284.034269	1244.790569	-423.707249	279.073157	1018.266904	-24.350968	311.161256	935.112267	-26.426755	300.526430	850.592656	-37.404601	346.722024	940.450214	-35.531066	302.224950	725.468002	-77.663761	308.211977	709.729764	-197.099561	245.428558	574.786858	-44.204612	241.757868	485.999565	-53.660375	194.696506	411.197809	-50.535407	271.186172	478.376458	-77.714035	145.314019	290.143780	-66.896397	76.403244	286.057815	-95.742360	334.937292	111.865521	-116.407220	228.743398	159.957305	-38.848549	256.177408	168.097478	-152.148505	387.517610	1134.830485	-461.886731	463.799885	1095.774327	-473.730646	488.720788	1120.386249	-461.749763	511.308156	1020.281107	-481.739863	614.843330	932.604174	-476.343320	624.819925	913.924241	-344.267628	482.043549	820.156084	-485.710054	433.778954	754.307859	-460.631300	351.758391	716.543010	-451.239635	455.439086	733.705193	-436.755530	251.667147	642.344791	-426.574627	171.968915	642.799028	-380.892386	414.011197	454.206646	-345.043822	335.222060	510.685931	-310.966621	312.467932	500.672207	-429.320481	-116.846306	1020.029526	-235.339863	-7.520680	84.227293	-437.042339	-13.700065	80.835524	-36.777121	
